<svg width="20" height="24" viewBox="0 0 20 24" fill="none" xmlns="http://www.w3.org/2000/svg">
<path d="M1.64948 12.987L8.45361 17.1429L7.1134 17.974L0 13.7143V6.23377L10.3093 0L12.6804 1.66234L11.2371 2.49351L10.3093 1.97403L1.64948 7.27273V12.987Z" fill="#3625A9"/>
<path d="M3.29899 8.31169V12.3636L4.84538 13.1948V9.14285L13.8145 4.15584L18.5567 6.85714V7.58441L20 8.31169V6.02597L13.8145 2.28571L3.29899 8.31169Z" fill="#3625A9"/>
<path d="M18.3505 11.013L11.5464 6.85714L12.8866 6.02597L20 10.2857V17.7662L9.69072 24L7.31959 22.3377L8.76289 21.5065L9.69072 22.026L18.3505 16.7273V11.013Z" fill="#3625A9"/>
<path d="M16.701 15.6883V11.6364L15.1546 10.8052V14.8572L6.18555 19.8442L1.44328 17.1429V16.4156L-1.71661e-05 15.6883V17.974L6.18555 21.7143L16.701 15.6883Z" fill="#3625A9"/>
</svg>
