<?xml version="1.0" standalone="no"?>
<!DOCTYPE svg PUBLIC "-//W3C//DTD SVG 20010904//EN"
 "http://www.w3.org/TR/2001/REC-SVG-20010904/DTD/svg10.dtd">
<svg version="1.0" xmlns="http://www.w3.org/2000/svg"
 width="768.000000pt" height="768.000000pt" viewBox="0 0 768.000000 768.000000"
 preserveAspectRatio="xMidYMid meet">
<metadata>
Created by potrace 1.11, written by Peter Selinger 2001-2013
</metadata>
<g transform="translate(0.000000,768.000000) scale(0.100000,-0.100000)"
fill="#000000" stroke="none">
<path d="M3840 7620 c-52 -33 -102 -63 -110 -67 -8 -4 -34 -20 -56 -35 -23
-15 -44 -28 -47 -28 -3 0 -60 -34 -127 -75 -67 -41 -126 -75 -131 -75 -5 0 -9
-4 -9 -10 0 -5 -4 -10 -8 -10 -9 0 -32 -14 -512 -305 -155 -93 -293 -177 -308
-186 -15 -9 -115 -69 -222 -134 -107 -65 -222 -134 -255 -153 -33 -19 -67 -40
-75 -47 -8 -7 -35 -24 -60 -37 -34 -19 -387 -230 -480 -288 -8 -5 -145 -88
-305 -185 -320 -194 -307 -187 -381 -232 -29 -18 -58 -33 -64 -33 -5 0 -10 -4
-10 -9 0 -5 -9 -11 -20 -14 -20 -5 -20 -12 -18 -1208 l3 -1202 30 -19 c17 -10
39 -22 50 -28 11 -6 29 -16 40 -23 11 -7 65 -39 120 -71 55 -33 102 -62 105
-65 5 -6 13 -11 99 -59 25 -14 68 -39 96 -56 28 -17 59 -36 70 -43 11 -6 124
-74 250 -150 127 -76 236 -139 243 -141 6 -2 12 -8 12 -13 0 -5 4 -9 9 -9 6 0
74 -39 153 -86 79 -48 159 -96 179 -108 20 -11 122 -73 228 -136 105 -63 199
-119 209 -125 39 -22 267 -160 272 -165 3 -3 28 -17 56 -32 l52 -28 158 97
c88 54 161 100 164 103 8 8 43 29 67 39 11 6 24 14 27 19 3 5 -265 175 -597
377 -605 369 -659 403 -709 437 -15 10 -29 18 -32 18 -3 0 -252 150 -346 210
-30 19 -156 95 -172 105 -10 5 -83 50 -163 99 -143 88 -145 89 -145 125 -1 51
-1 1763 0 1782 0 9 21 28 48 43 26 15 83 49 127 77 44 27 157 95 250 152 94
56 176 107 182 114 7 6 26 17 43 25 16 7 30 16 30 20 0 5 4 8 10 8 5 0 45 23
88 50 43 28 84 50 90 50 5 0 12 3 14 8 4 10 186 122 198 122 6 0 10 4 10 9 0
5 10 13 23 17 12 4 24 10 27 13 3 4 79 52 170 106 155 93 221 134 245 152 6 5
23 15 38 23 31 18 174 104 272 165 39 24 110 67 158 97 49 29 99 60 113 68 13
8 81 50 151 93 71 42 207 126 303 186 l175 109 75 -41 c41 -22 91 -49 110 -60
112 -64 123 -68 139 -54 9 8 109 67 224 132 114 65 207 120 207 124 -1 6 -306
223 -324 230 -6 2 -13 7 -16 11 -3 3 -34 26 -70 51 -36 24 -69 48 -75 52 -24
19 -264 187 -267 186 -2 0 -46 -27 -98 -59z"/>
<path d="M5036 6935 c-8 -8 -17 -15 -21 -15 -3 0 -44 -22 -91 -50 -47 -27 -89
-50 -94 -50 -6 0 -10 -3 -10 -8 0 -4 -14 -13 -31 -21 -18 -8 -59 -30 -93 -50
-88 -51 -95 -56 -366 -211 -135 -78 -252 -145 -260 -150 -8 -5 -215 -124 -460
-264 -245 -139 -461 -263 -480 -274 -40 -24 -66 -39 -130 -74 -25 -13 -64 -36
-87 -51 -24 -15 -45 -27 -48 -27 -2 0 -39 -20 -81 -45 -41 -25 -80 -45 -85
-45 -5 0 -9 -4 -9 -10 0 -5 -4 -10 -9 -10 -6 0 -60 -29 -122 -65 -61 -36 -113
-65 -114 -65 -2 0 -64 -36 -139 -80 -76 -44 -139 -80 -141 -80 -3 0 -34 -18
-70 -40 -36 -22 -68 -40 -71 -40 -3 0 -18 -8 -32 -19 -15 -10 -47 -29 -72 -43
-25 -14 -86 -48 -135 -76 l-90 -51 0 -645 c0 -410 4 -649 10 -655 6 -5 60 -35
120 -67 61 -32 127 -68 147 -81 21 -13 41 -23 45 -23 5 0 24 -10 43 -22 19
-12 37 -22 40 -23 3 0 24 -11 47 -23 l43 -22 0 645 0 645 37 23 c21 13 45 27
53 31 8 4 24 12 35 19 11 7 56 32 100 56 155 86 171 94 245 136 41 23 102 57
135 75 33 18 76 42 95 53 19 10 53 29 75 40 22 12 42 25 45 28 3 3 25 16 50
28 25 13 54 28 65 34 11 7 56 32 100 56 95 53 126 70 227 127 43 24 82 44 87
44 5 0 11 3 13 8 3 7 49 33 133 76 22 11 42 22 45 26 3 3 16 11 30 17 23 11
82 44 185 103 22 12 63 35 90 50 64 35 131 72 225 125 41 23 91 51 110 61 19
11 120 67 223 124 218 121 239 133 330 183 37 21 83 47 103 57 36 21 50 18 97
-19 9 -8 17 -12 17 -8 0 6 157 -85 177 -102 7 -6 15 -11 19 -11 11 0 209 -114
216 -125 4 -5 8 -6 8 -2 0 5 12 -1 26 -12 15 -12 33 -21 40 -21 8 0 14 -4 14
-10 0 -5 4 -10 9 -10 6 0 60 -29 122 -65 61 -36 113 -65 115 -65 3 0 21 -10
42 -23 20 -13 62 -37 92 -54 30 -17 147 -83 260 -148 113 -65 226 -129 252
-143 l46 -25 0 -106 c0 -58 0 -111 1 -118 1 -6 76 -49 169 -95 92 -46 169 -85
172 -88 3 -3 31 -17 63 -32 l57 -28 0 365 0 364 -57 38 c-32 20 -60 37 -63 38
-3 0 -23 12 -45 26 -22 14 -132 81 -245 149 -113 68 -223 135 -245 149 -22 14
-42 26 -45 26 -5 1 -55 31 -120 73 -14 9 -37 23 -52 32 -15 8 -89 52 -163 98
-74 45 -138 82 -140 82 -3 0 -11 5 -18 11 -11 10 -65 43 -435 266 -177 107
-174 105 -247 147 -27 16 -57 35 -65 41 -27 21 -49 24 -64 10z"/>
<path d="M4605 5655 c-82 -51 -155 -97 -161 -102 -19 -15 -49 -33 -71 -42 -11
-6 -24 -14 -27 -19 -3 -5 126 -90 287 -188 160 -98 315 -192 342 -209 28 -18
102 -63 165 -101 63 -38 117 -72 118 -76 2 -5 8 -8 12 -8 5 0 52 -27 105 -60
53 -33 100 -60 106 -60 5 0 9 -4 9 -8 0 -4 19 -18 43 -30 23 -12 74 -42 112
-67 39 -25 76 -48 83 -52 16 -7 493 -299 507 -310 6 -4 32 -19 58 -33 26 -13
47 -28 47 -32 0 -5 6 -8 13 -9 6 0 45 -21 86 -47 l73 -47 -1 -885 c0 -487 0
-898 -1 -915 0 -31 4 -28 -166 -130 -199 -120 -330 -201 -332 -207 -2 -5 -8
-8 -13 -8 -5 0 -39 -19 -77 -42 -37 -24 -77 -48 -88 -55 -39 -23 -550 -336
-574 -352 -28 -17 -25 -16 -142 -86 -79 -47 -141 -86 -163 -102 -6 -5 -23 -15
-38 -23 -31 -18 -174 -104 -272 -165 -38 -24 -110 -67 -158 -97 -49 -29 -99
-60 -113 -68 -13 -8 -81 -50 -151 -93 -71 -42 -207 -126 -303 -186 l-175 -109
-75 41 c-41 22 -91 49 -110 60 -112 64 -123 68 -139 54 -9 -8 -109 -67 -223
-132 -115 -65 -208 -120 -208 -124 1 -6 306 -223 324 -230 6 -2 13 -7 16 -11
3 -3 34 -26 70 -51 36 -24 69 -48 75 -52 5 -4 67 -48 137 -98 l128 -89 95 57
c53 32 103 63 113 68 9 6 36 23 59 38 24 15 45 27 47 27 2 0 59 34 126 75 67
41 126 75 131 75 5 0 9 5 9 10 0 6 4 10 8 10 5 0 59 30 120 68 62 37 237 143
389 235 153 92 292 175 308 185 17 9 32 20 35 23 3 3 12 9 20 12 8 4 31 17 51
30 20 12 77 47 128 77 51 30 103 62 116 70 13 8 74 46 137 83 122 73 125 75
205 125 29 18 56 32 59 31 4 0 10 3 13 8 8 11 410 253 421 253 4 0 10 3 12 8
2 4 104 68 228 143 124 74 280 169 348 210 l122 74 0 1196 0 1197 -25 16 c-14
9 -28 17 -32 17 -5 0 -15 6 -23 13 -12 10 -185 116 -295 179 -11 7 -42 26 -70
43 -27 17 -77 46 -110 64 -33 19 -62 36 -65 39 -5 6 -30 21 -80 48 -14 8 -38
23 -55 33 -16 11 -46 29 -65 40 -19 11 -44 26 -55 33 -28 17 -91 55 -128 76
-18 10 -120 71 -227 136 -107 65 -211 127 -231 139 -20 11 -122 73 -228 136
-105 63 -199 120 -209 125 -39 22 -267 160 -272 165 -7 7 -107 60 -111 59 -2
0 -71 -43 -154 -94z"/>
<path d="M5490 3573 l0 -648 -37 -20 c-21 -11 -76 -42 -123 -69 -47 -26 -94
-52 -105 -57 -11 -5 -33 -17 -50 -27 -16 -10 -66 -38 -110 -62 -44 -23 -84
-46 -90 -50 -5 -4 -36 -21 -67 -39 -129 -70 -174 -94 -203 -110 -16 -9 -32
-19 -35 -22 -3 -3 -25 -16 -50 -28 -25 -13 -54 -28 -65 -34 -11 -7 -56 -32
-100 -56 -95 -53 -126 -70 -227 -127 -43 -24 -82 -44 -87 -44 -5 0 -11 -3 -13
-7 -3 -8 -49 -34 -133 -77 -22 -11 -42 -22 -45 -26 -3 -3 -16 -11 -30 -17 -23
-11 -82 -44 -185 -103 -22 -12 -62 -35 -90 -50 -64 -35 -131 -72 -225 -125
-41 -23 -91 -51 -110 -61 -19 -11 -120 -67 -223 -124 -218 -121 -239 -133
-330 -183 -37 -21 -83 -47 -103 -57 -36 -21 -50 -18 -96 19 -10 8 -18 12 -18
8 0 -6 -157 85 -177 102 -7 6 -15 11 -19 11 -11 0 -209 114 -216 125 -4 5 -8
6 -8 2 0 -5 -12 1 -26 12 -15 12 -33 21 -40 21 -8 0 -14 5 -14 10 0 6 -4 10
-9 10 -6 0 -60 29 -122 65 -61 36 -113 65 -115 65 -3 0 -21 10 -42 23 -20 13
-62 37 -92 54 -30 17 -147 83 -260 148 -113 65 -226 129 -252 143 l-46 25 0
106 c0 58 0 111 -1 118 -1 6 -105 64 -231 127 l-230 116 0 -365 0 -364 58 -38
c31 -20 59 -37 62 -38 3 0 23 -12 45 -26 22 -14 132 -81 245 -149 113 -68 223
-135 245 -149 22 -14 42 -26 45 -26 5 -1 55 -31 120 -73 14 -9 37 -23 52 -32
15 -8 89 -52 163 -98 74 -45 138 -82 140 -82 3 0 11 -5 18 -11 12 -10 89 -57
435 -266 90 -54 180 -108 200 -121 20 -12 54 -32 76 -45 21 -12 48 -27 59 -34
21 -12 47 -7 47 8 0 5 5 9 11 9 6 0 48 23 95 50 47 28 89 50 94 50 6 0 10 3
10 8 0 4 14 13 31 21 18 8 59 30 93 50 88 51 95 56 366 211 135 78 252 145
260 150 8 5 215 124 460 264 245 139 461 263 480 274 40 24 66 39 130 74 25
13 64 36 87 51 24 15 45 27 48 27 2 0 39 20 81 45 41 25 80 45 85 45 5 0 9 5
9 10 0 6 4 10 8 10 7 0 146 76 202 110 33 21 166 96 180 103 8 4 33 18 55 32
22 14 47 28 55 32 8 4 47 26 85 48 39 23 77 45 85 49 8 4 24 12 35 19 11 7 52
30 90 52 39 21 73 44 77 49 4 6 8 7 8 2 0 -5 8 -3 18 5 9 8 34 24 55 34 20 11
38 22 38 25 1 3 2 296 3 651 l1 646 -55 29 c-30 16 -93 49 -140 75 -47 25
-133 71 -192 103 l-108 57 0 -648z"/>
</g>
</svg>
